# xmcd
#
# Track frame offsets: 
#        150
#        9980
#        22208
#        34544
#        45718
#        61273
#        74194
#        84837
#        100654
#        112541
#        121517
#        136945
#        150096
#        160824
#        174579
#
# Disc length: 2478 seconds
#
# Revision: 8
# Processed by: cddbd v1.5.2PL0 Copyright (c) Steve Scherf et al.
# Submitted via: ExactAudioCopy v0.99pb4
#
DISCID=a709ac0f
DTITLE=Hot Club of Cowtown - Tall Tales
DYEAR=1999
DGENRE=Western Swing
TTITLE0=Draggin' the Bow
TTITLE1=Emily
TTITLE2=Darling You and I Are Through
TTITLE3=I Can't Tame Wild Women
TTITLE4=When I Lost You
TTITLE5=You Can't Take It with You
TTITLE6=Wildcat
TTITLE7=Always and Always
TTITLE8=I Laugh When I Think How I Cried over You
TTITLE9=Joe-Bob Rag
TTITLE10=There'll Be Some Changes Made
TTITLE11=Red Hot Moma
TTITLE12=Bonaparte's Retreat
TTITLE13=Polka Dots and Moonbeams
TTITLE14=Sally Goodin'
EXTD=Whit Smith: guitar, vocals\nElana Fremerman: violin, vocals\nBill
EXTD=y Horton: double bass, vocals\nPeter Ecklund (tracks 2,5,8,12): c
EXTD=ornet\nJoe Kerr (5,8): piano\nMarty Laster (3,6,9): violin\nRecor
EXTD=ded by Scott Hollingsworth at Baby Monster Studios, New York US-N
EXTD=Y, 1999-04-05/08.\nProduced by Dave Stuckey.\nCD: Hightone Record
EXTD=s HCD8104 (1999-08-03), UPC 012928810425.
EXTT0=(trad.)
EXTT1=(Whit Smith)
EXTT2=(Elana Fremerman)
EXTT3=(Bill Boyd)
EXTT4=(Dave Stuckey/Whit Smith)
EXTT5=(Billy Horton/Bobby Horton)
EXTT6=(Joe Venuti/Eddie Lang)
EXTT7=(Robert C. Wright/George Forrest/Edwin Ward)
EXTT8=(Bob Wills/Maxine Fowler)
EXTT9=(Bob Wills/Joe Holley)
EXTT10=(W. Benton Overstreet//Billy Higgins)
EXTT11=(Gilbert Wells/Bud Cooper/Fred Rose)
EXTT12=(Pee Wee King/Redd Stewart)
EXTT13=(Jimmy Van Heusen//Johnny Burke)
EXTT14=(trad.)
PLAYORDER=
